PathFileType	4	(X/Y/Z)	F:\MotionCapture\20160217\3\Generated_files\2_Test01-Dynamic.trc
DataRate	CameraRate	NumFrames	NumMarkers	Units	OrigDataRate	OrigDataStartFrame	OrigNumFrames
120.00	120.00	       6	39	mm	120.00	604	       690
Frame#	Time	Top.Head			Front.Head			Rear.Head			R.Shoulder			R.Offset			R.Elbow			R.Wrist			L.Shoulder			L.Elbow			L.Wrist			R.ASIS			L.ASIS			V.Sacral			R.Thigh			R.Knee			R.Shank			R.Ankle			R.Heel			R.Toe			L.Thigh			L.Knee			L.Shank			L.Ankle			L.Heel			L.Toe			R1			R2			R3			R4			R5			R6			R7			L1			L2			L3			L4			L5			L6			L7			V_Mid_ASIS			V_Pelvis_Origin			V_R.Hip_JC			V_L.Hip_JC			V_R.Knee_JC			V_L.Knee_JC			V_R.Ankle_JC			V_L.Ankle_JC			V_Mid_Hip			V_Mid_Shoulder			V_R.Hand			V_L.Hand			V_R.Toe_Offset_Static			V_L.Toe_Offset_Static			V_R.Toe_Offset			V_L.Toe_Offset			
		X1	Y1	Z1	X2	Y2	Z2	X3	Y3	Z3	X4	Y4	Z4	X5	Y5	Z5	X6	Y6	Z6	X7	Y7	Z7	X8	Y8	Z8	X9	Y9	Z9	X10	Y10	Z10	X11	Y11	Z11	X12	Y12	Z12	X13	Y13	Z13	X14	Y14	Z14	X15	Y15	Z15	X16	Y16	Z16	X17	Y17	Z17	X18	Y18	Z18	X19	Y19	Z19	X20	Y20	Z20	X21	Y21	Z21	X22	Y22	Z22	X23	Y23	Z23	X24	Y24	Z24	X25	Y25	Z25	X26	Y26	Z26	X27	Y27	Z27	X28	Y28	Z28	X29	Y29	Z29	X30	Y30	Z30	X31	Y31	Z31	X32	Y32	Z32	X33	Y33	Z33	X34	Y34	Z34	X35	Y35	Z35	X36	Y36	Z36	X37	Y37	Z37	X38	Y38	Z38	X39	Y39	Z39	

604	5.025	-2225.10986	227.02441	1714.62268	-2324.29443	201.65388	1620.21545	-2109.44312	234.73093	1657.85620	-2131.36157	402.60938	1404.32898	-2005.30798	119.65081	1277.73633	-2037.03491	483.65375	1091.59180	-2073.85718	500.29388	831.04492	-2174.11548	-0.42053	1428.05273	-2235.67456	-135.71738	1126.59021	-2439.06787	-110.86445	970.27185	-2204.17456	326.88293	944.74048	-2210.41284	39.88910	944.74121	-1979.40222	180.87286	938.83942	-2359.52832	329.19955	627.56598	-2307.15283	377.15543	495.31900	-2307.11572	299.61127	263.41611	-2229.11108	357.27667	96.78379	-2171.99731	283.37894	78.69260	-2364.36841	353.30603	61.65655	-2211.36694	107.17899	608.36908	-2095.27417	61.33790	455.54672	-2076.10669	145.00113	320.45877	-1961.11279	90.66907	69.92764	-1892.27649	143.51311	60.56182	-2098.45532	105.94269	38.25217	-2410.09741	346.19382	69.27952	-2378.17969	319.71439	69.26539	-2292.67944	276.11508	89.31960	-2218.83228	263.14059	79.54049	-2195.07397	330.69705	74.97688	-2265.45679	369.06418	57.04556	-2327.20972	386.20169	50.66951	-2143.42700	134.27567	33.21775	-2107.93848	144.97542	42.00633	-2009.82886	182.65822	50.50708	-1926.98706	177.19458	56.94758	-1924.53027	107.61822	52.90428	-1994.59753	82.81380	35.30750	-2056.71948	71.45854	36.57815																																																	-2180.22974	269.36008	90.98129	
605	5.033	-2237.16528	228.18718	1712.59717	-2336.06665	202.31573	1618.12500	-2121.64917	236.10168	1656.27979	-2142.14380	403.59442	1402.13940	-2015.76172	120.18575	1276.04993	-2043.11292	482.57617	1090.88757	-2075.02246	500.14368	829.83588	-2185.40454	0.47926	1426.25281	-2251.18652	-135.05267	1126.11438	-2458.96851	-109.28134	975.71075	-2215.76563	327.04599	942.83765	-2220.60352	39.80993	942.95837	-1990.38306	181.51991	937.68988	-2371.64429	328.87094	626.41571	-2320.90015	376.26068	493.74460	-2331.92456	300.75830	261.83047	-2263.81494	360.70370	92.04922	-2206.32227	287.09970	71.15842	-2399.59033	352.01987	60.94911	-2218.52100	106.68764	606.08765	-2100.43115	60.64460	455.06226	-2079.19727	145.15997	319.77554	-1961.34314	90.95601	70.14311	-1892.28394	143.94507	61.50264	-2099.27612	104.63583	38.59749	-2445.73242	347.02756	73.28143	-2413.27319	320.91022	70.66226	-2327.19092	278.27570	87.22921	-2253.80371	265.27902	74.82604	-2231.72241	334.60718	67.89193	-2302.27295	372.26553	53.94621	-2363.37793	388.08847	49.72979	-2143.64087	133.73473	33.30519	-2107.15039	145.61554	41.48768	-2010.42480	182.53598	50.73196	-1927.54761	177.59787	57.89783	-1923.68250	107.44556	54.20045	-1994.35376	83.02391	35.45986	-2056.35181	71.47742	36.22718																																																	-2215.46533	272.74496	84.11641	-2000.54871	215.31396	26.36472	
606	5.042	-2249.15845	228.82767	1710.39331	-2347.83325	203.15147	1615.63684	-2132.62500	236.90479	1653.99573	-2152.51489	404.08154	1400.30249	-2025.88501	120.93396	1274.72144	-2049.89087	482.33487	1090.30115	-2076.95728	499.97888	828.84210	-2196.95166	1.55574	1424.43481	-2266.71069	-134.96965	1125.88525	-2478.13574	-107.88629	980.97009	-2227.21240	327.56610	940.24811	-2231.25708	39.90441	941.21716	-2000.82263	182.66045	936.66730	-2383.41602	328.48172	624.71765	-2334.41968	374.80914	492.29810	-2356.90454	301.55237	260.82791	-2297.46729	361.81522	88.99786	-2242.06006	291.26761	63.91908	-2436.34131	356.49530	65.19943	-2225.84033	105.93062	604.02423	-2104.63135	60.96794	454.03931	-2083.70239	144.91060	319.55289	-1961.59607	91.06198	70.43343	-1892.60315	144.36334	62.92496	-2097.79590	105.88577	37.52361	-2480.76611	347.99725	77.63637	-2448.11011	322.44263	73.15369	-2361.12598	280.70291	85.72547	-2288.26563	268.79480	70.06403	-2266.56323	337.99802	62.28237	-2341.08716	374.10477	53.64569	-2401.34814	390.15924	52.07613	-2143.42871	133.62833	33.09329	-2107.11108	145.49509	41.46382	-2010.56531	182.51118	51.06853	-1927.64978	177.56250	58.99963	-1923.70178	107.66257	55.03127	-1994.31250	83.10607	35.67844	-2056.42725	71.37582	36.44150																																																	-2001.21838	215.60048	26.41168	
607	5.050	-2261.18140	230.02287	1707.95459	-2359.70386	203.97369	1613.31995	-2145.17261	238.23987	1651.45068	-2163.66455	405.17676	1398.49390	-2038.73633	121.82188	1272.86755	-2057.02100	482.05557	1089.22412	-2079.18652	499.84366	827.58234	-2208.59180	2.09662	1422.35986	-2281.72705	-134.23523	1125.37830	-2496.88354	-106.28632	986.49628	-2238.76904	328.14563	937.89020	-2241.48560	40.30673	939.33142	-2011.80762	183.50905	935.30157	-2395.15234	327.98395	622.64661	-2347.23633	373.02371	490.47928	-2381.43286	302.49448	260.34213	-2331.60278	365.46060	85.49960	-2276.75195	295.36908	58.01877	-2471.72339	358.60342	68.82172	-2232.83423	105.20786	601.78284	-2109.88843	60.19695	453.59189	-2087.32642	144.65392	318.77502	-1961.77527	91.07722	71.25093	-1892.80017	144.60236	64.03479	-2097.71924	105.70908	37.53201	-2515.03394	349.03769	82.71627	-2482.49146	323.74448	76.19404	-2394.81079	283.07047	85.06938	-2322.60156	271.25302	66.28572	-2302.14111	342.99124	58.60573	-2376.23413	378.08978	52.22621	-2437.37866	392.39874	54.13987	-2143.42725	133.26689	33.09251	-2107.06519	145.36560	41.42507	-2011.04688	182.34875	51.76677	-1927.79956	177.66054	60.03736	-1923.71814	107.87292	55.94745	-1994.12109	83.20599	35.89162	-2055.94482	71.52138	35.93305																																																	660.94501	-708.04242	885.88019	-2454.48584	304.39453	126.90105	
608	5.058	-2273.33911	231.00374	1705.84827	-2371.57153	204.47418	1610.65271	-2156.96265	239.76358	1649.59058	-2174.22168	405.91873	1396.39587	-2047.83008	122.75292	1270.97595	-2063.41675	481.94824	1088.48181	-2082.24805	499.60907	826.86737	-2220.30249	3.21068	1420.52075	-2296.72607	-133.35939	1125.01367	-2515.12622	-104.88192	990.90350	-2250.90381	328.70633	935.85663	-2252.04419	40.74407	937.42896	-2023.80737	184.84991	933.23193	-2406.36353	327.50983	620.00098	-2360.37524	372.02966	488.32956	-2405.47485	303.44980	260.00458	-2365.31616	368.05542	83.53513	-2310.59082	299.45435	53.09801	-2505.78101	360.18185	72.90340	-2240.41479	104.46126	599.68024	-2114.58960	60.37534	452.41797	-2090.24243	144.35802	317.82654	-1961.83728	91.20901	72.60406	-1893.10669	144.76767	65.98015	-2097.65015	105.65359	37.54890	-2548.64185	350.00281	88.74706	-2515.64966	326.09702	80.73926	-2427.17310	286.04745	84.74028	-2356.39600	274.83264	63.28495	-2336.23535	345.96024	54.93458	-2411.74463	380.48560	52.48840	-2473.00342	394.41214	57.01920	-2143.48755	132.97437	33.08760	-2107.10474	145.18567	41.40390	-2011.51672	182.27118	52.46630	-1928.20361	177.79227	61.18064	-1924.16174	108.22361	57.25452	-1993.91113	83.21585	36.11136	-2055.68628	71.48181	35.80717																																																	-2001.89038	215.64919	28.56495	
609	5.067	-2285.52539	231.87915	1703.43616	-2383.48071	205.40736	1608.26001	-2169.24170	240.98166	1647.91284	-2185.13721	406.94397	1394.46106	-2059.26050	123.18638	1269.17456	-2069.95386	481.71289	1087.56213	-2085.12939	498.54523	825.33154	-2231.59448	4.41088	1418.46777	-2312.01807	-132.91844	1124.83862	-2532.81763	-103.12682	995.54736	-2263.01001	329.17114	933.42212	-2262.71777	40.87383	935.46887	-2033.90918	185.96202	932.13422	-2417.24854	326.59030	616.89490	-2372.73242	370.63351	485.88647	-2428.72144	304.09042	259.96790	-2398.17798	371.63647	82.38318	-2344.00439	303.66226	48.50605	-2539.05566	361.74698	78.04025	-2247.63159	103.78046	597.43207	-2120.04663	59.92315	451.67233	-2093.94629	144.21933	316.89282	-1962.43469	90.87337	73.50555	-1893.79004	145.59055	67.65255	-2097.63403	105.53153	37.57219	-2580.86328	350.12183	95.60770	-2548.05347	326.85663	85.97945	-2458.81812	288.13049	85.59690	-2388.12280	278.77219	60.32005	-2370.07959	349.54190	53.03880	-2445.95923	382.93253	53.53651	-2506.81836	396.20282	60.82877	-2143.53857	132.72966	33.05701	-2107.08643	145.01945	41.32129	-2012.16418	182.62209	53.24900	-1928.59900	178.10898	63.03460	-1925.82520	110.82514	57.47995	-1993.86707	83.13348	36.27392	-2055.53613	71.33768	35.71827																																																	-2002.21497	215.73163	29.41216	-2318.89673	235.99474	2.95999	-2568.39697	319.54446	115.50484	-2515.41040	311.84189	125.72240	
